<svg xmlns="http://www.w3.org/2000/svg" width="200" height="31" viewBox="0 0 198 31" xmlns:v="https://vecta.io/nano"><defs><linearGradient id="A" gradientUnits="userSpaceOnUse" x1="113.669" y1="3.773" x2="113.669" y2="26.694"><stop offset="0" stop-color="rgb(15.686275%,34.509804%,30.196078%)"/><stop offset="1" stop-color="rgb(3.137255%,12.54902%,18.039216%)"/></linearGradient><linearGradient id="B" gradientUnits="userSpaceOnUse" x1="143.043" y1="4.306" x2="143.043" y2="26.694"><stop offset="0" stop-color="rgb(100%,82.352941%,0%)"/><stop offset="1" stop-color="rgb(100%,53.72549%,24.705882%)"/></linearGradient><radialGradient id="C" gradientUnits="userSpaceOnUse" cx="0" cy="0" fx="0" fy="0" r="1" gradientTransform="matrix(0.000000000000000672,10.980178,-10.977163,0.000000000000000672,13.233115,13.236397)"><stop offset="0" stop-color="rgb(9.019608%,83.921569%,43.921569%)"/><stop offset="1" stop-color="rgb(7.058824%,60%,31.764706%)"/></radialGradient><linearGradient id="D" gradientUnits="userSpaceOnUse" x1="13.235" y1="1.722" x2="13.235" y2="29.278"><stop offset="0" stop-color="rgb(15.686275%,34.509804%,30.196078%)"/><stop offset="1" stop-color="rgb(3.137255%,12.54902%,18.039216%)"/></linearGradient></defs><path d="M140.38 4.305c.188 0 .34.137.375.316l.004.07v3.633a1.57 1.57 0 0 1-.391 1.031c-1.535 1.66-2.355 3.87-2.273 6.145 0 3.1 2.215 5.02 4.95 5.02s4.95-1.93 4.95-5.02a8.6 8.6 0 0 0-2.273-6.145c-.22-.246-.355-.56-.383-.9l-.008-.14V4.7c0-.187.133-.348.313-.38l.066-.008h5.332a.38.38 0 0 1 .375.316l.008.07v3.1a.39.39 0 0 1-.312.379l-.07.004h-1.2a.32.32 0 0 0-.285.184c-.05.113-.03.246.05.34 1.898 2.223 3.266 4.672 3.344 8.742l.004.387v.063c0 5.258-4.3 8.703-9.633 8.813l-.266.004a12.98 12.98 0 0 1-.785-.023l-.258-.02c-4.977-.414-8.855-3.777-8.855-8.773v-.062c0-4.305 1.387-6.836 3.348-9.13.082-.094.102-.227.05-.34-.043-.1-.12-.152-.215-.172l-.07-.012h-1.2c-.187 0-.344-.137-.375-.316l-.004-.066V4.7c0-.187.133-.348.313-.38l.066-.008zm25.555-.512c3.563 0 6.137 1.117 7.098 2.047 0 .617-1.3 3.965-2.078 4.617-1.113-.652-3.004-1.488-4.957-1.488-3.2 0-5.672 2.543-5.672 6.078 0 4.43 2.727 6.2 5.363 6.2 2.508 0 4.215-1.332 4.895-1.828.715.496 2.078 3.004 2.574 4.06-1.336 1.52-4.465 3.008-8.027 3.008-7.254 0-10.633-5.176-10.633-11.656 0-6.23 4.402-11.035 11.438-11.035zm-114.9.246c5.95 0 9.36 2.355 9.36 7.535 0 3.223-1.52 5.113-3.937 6.105 2.355 2.852 4.773 6.633 4.68 6.758-.34.465-3.902 1.953-4.832 1.922-.094 0-2.8-4.37-5.363-7.75-.125.03-.277.03-.402.03-.527 0-1.27-.03-1.645-.062-.03 2.14-.03 6.355-.152 7.254-.312.125-5.27.28-5.3.094-.156-1.457-.03-19.406.25-21.543 1.578-.187 4.926-.344 7.344-.344zm124.703.22c.37-.402 5.363-.22 5.547-.125s-.152 9.27-.152 9.27 7.56-9.363 7.8-9.363c.277 0 4.586 1.273 4.617 1.645.03.34-6.012 8.12-6.012 8.12 1.52 2.1 6.074 10.387 6.23 10.977-.03.246-4.156 1.766-5.145 1.516-.437-.37-4.37-7.656-5.023-8.742l-2.324 2.605.03 5.766c-.56.156-5.113.28-5.328.094s-.684-21.297-.25-21.762zm-84.043-.094c.063-.652 5.453-.34 5.547-.125.063 1.023.156 4.652.188 8.773l7.715-.062.156-8.336c1.055-.28 5.332-.25 5.516-.062.22.184.25 19.406-.062 21.512-.152.652-5.516.375-5.516.125l-.094-8.152-7.652.03-.094 8.1c-1.023.28-5.547.37-5.578.063-.156-1.766-.375-19.746-.125-21.855zM33.73 4.32c.992-.37 5.328-.25 5.516-.062.22 1.3.188 19.6-.03 21.574-.187.56-5.484.344-5.516.125-.125-2.2-.22-18.66.03-21.637zm30.215 0c.992-.37 5.332-.25 5.516-.062.22 1.3.188 19.6-.027 21.574-.187.56-5.488.344-5.52.125-.12-2.2-.215-18.66.03-21.637zm16.9-.527c3.285 0 6.043.867 7.254 1.828.402.3-1.457 4.34-1.77 4.3-.465-.215-2.727-1.363-5.36-1.363-1.86 0-2.727.742-2.727 1.766 0 .96.527 1.457 3.53 2.14 4 .93 7.098 2.543 7.098 6.8 0 3.285-2.633 6.727-8.676 6.727-3.473 0-6.512-1.363-7.625-2.2-.125-.62 1.395-4.6 1.734-4.434.715.434 3.04 2.105 5.672 2.105 1.828 0 3.008-.555 3.008-1.9 0-.992-.746-1.734-3.937-2.387-4.06-.836-6.324-2.727-6.324-6.8 0-3.53 2.883-6.602 8.12-6.602zm36.348.402c.156-.187 5.363-.34 5.426-.156.06 1.023-.03 15.004-.125 16.988 2.695-.094 7.625-.152 8.555-.03.246 1.023.277 4.277.12 4.836-.03.156-13.047.156-14.102-.03-.152-2.387-.1-20.488.125-21.605zm25.86 19.023c-.422 0-.762.348-.762.773s.34.773.762.773a.77.77 0 0 0 .762-.773c0-.426-.34-.773-.762-.773zm-5.7-2.7c-.422 0-.762.344-.762.77s.34.773.762.773a.77.77 0 0 0 .762-.773c0-.426-.34-.77-.762-.77zm11.422 0c-.418 0-.762.344-.762.77a.77.77 0 0 0 .762.773c.422 0 .762-.348.762-.773s-.34-.77-.762-.77zM135.8 14.725c-.422 0-.762.348-.762.773s.34.773.762.773a.77.77 0 0 0 .762-.773c0-.426-.34-.773-.762-.773zm14.47 0c-.422 0-.762.348-.762.773s.34.773.762.773a.77.77 0 0 0 .762-.773c0-.426-.34-.773-.762-.773zM51.24 8.842c-.586 0-1.426.03-2.043.094.027.77.004 3.7 0 5.016v.316c.6.063 1.52.094 2.23.094 2.016 0 3.4-.805 3.4-2.664 0-1.738-.898-2.855-3.598-2.855zm87.234-2.992a.77.77 0 0 0-.762.77.77.77 0 0 0 .762.773c.422 0 .762-.348.762-.773s-.34-.77-.762-.77zm9.14 0c-.422 0-.762.344-.762.77s.34.773.762.773a.77.77 0 0 0 .762-.773c.004-.425-.344-.77-.762-.77zm0 0" fill="url(#A)"/><path d="M143.043 26.695h-.008a12.72 12.72 0 0 1-.777-.023l-.258-.02c-4.977-.414-8.855-3.777-8.855-8.773v-.062c0-4.305 1.387-6.836 3.348-9.13.082-.094.102-.227.05-.34-.043-.1-.12-.152-.215-.172l-.07-.012h-1.2c-.187 0-.344-.137-.375-.316l-.004-.066v-3.1c0-.187.133-.348.313-.38l.066-.008h5.332c.188 0 .34.137.375.316l.004.07v3.633a1.57 1.57 0 0 1-.391 1.031c-1.535 1.66-2.355 3.87-2.273 6.145 0 3.1 2.215 5.02 4.95 5.02s4.95-1.93 4.95-5.02a8.6 8.6 0 0 0-2.273-6.145c-.22-.246-.355-.56-.383-.9l-.008-.14V4.7c0-.187.133-.348.313-.38l.066-.008h5.332a.38.38 0 0 1 .375.316l.004.07v3.1a.39.39 0 0 1-.3.38l-.07.004h-1.2a.32.32 0 0 0-.285.184c-.05.113-.03.246.05.34 1.898 2.223 3.266 4.672 3.344 8.742l.004.387v.063c0 5.258-4.3 8.703-9.633 8.813zm-.762-2.703c0-.426.34-.773.762-.773s.762.348.762.773a.77.77 0 0 1-.762.773c-.422 0-.762-.348-.762-.773zm-5.7-2.703c0-.426.34-.77.762-.77s.762.344.762.77a.77.77 0 0 1-.762.773c-.422 0-.762-.348-.762-.773zm11.422 0c0-.426.344-.77.762-.77s.762.344.762.77-.34.773-.762.773a.77.77 0 0 1-.762-.773zm-12.945-5.8c0-.426.34-.773.762-.773s.762.348.762.773a.77.77 0 0 1-.762.773c-.422 0-.762-.348-.762-.773zm14.47 0c0-.426.34-.773.762-.773s.762.348.762.773a.77.77 0 0 1-.762.773c-.422 0-.762-.348-.762-.773zM137.7 6.62a.77.77 0 0 1 .762-.77c.422 0 .762.344.762.77s-.34.773-.762.773a.77.77 0 0 1-.762-.773zm9.14 0c0-.426.34-.77.762-.77s.762.344.762.77-.344.77-.762.773a.77.77 0 0 1-.762-.773zm0 0" fill-rule="evenodd" fill="url(#B)"/><path d="M5.82 20.652c-.125 1.012.148 1.992.844 2.688 1.344 1.348 3.754 1.113 5.383-.516.605-.602.973-1.56 1.188-2.637.2 1.078.578 2.035 1.184 2.637 1.63 1.63 4.04 1.863 5.383.52.695-.7.97-1.68.844-2.7 1.012.125 1.996-.148 2.7-.848 1.344-1.344 1.113-3.754-.516-5.383-.605-.605-1.56-.973-2.64-1.184 1.082-.215 2.035-.582 2.64-1.187 1.63-1.63 1.86-4.04.516-5.383-.695-.7-1.68-.97-2.7-.848.125-1.012-.148-1.992-.844-2.688-1.344-1.348-3.754-1.113-5.383.516-.602.605-.97 1.56-1.184 2.637-.215-1.078-.582-2.035-1.187-2.637-1.63-1.63-4.04-1.863-5.383-.52-.695.7-.97 1.68-.844 2.7-1.012-.125-1.992.148-2.7.848-1.344 1.344-1.1 3.754.52 5.383.602.605 1.56.973 2.637 1.184-1.078.215-2.035.582-2.637 1.188-1.63 1.63-1.863 4.04-.52 5.383.695.7 1.68.973 2.7.848zm0 0" fill="url(#C)"/><path d="M23.2 14.043c-.312-.316-.715-.582-1.203-.805a4.08 4.08 0 0 0 1.203-.805c.875-.88 1.418-1.988 1.527-3.13.113-1.18-.246-2.254-1.012-3.02-.645-.645-1.535-1.004-2.504-1.027-.023-.973-.383-1.863-1.03-2.508-1.55-1.55-4.305-1.32-6.14.52-.316.313-.582.715-.805 1.203-.223-.488-.492-.9-.805-1.207C10.594 1.43 7.836 1.2 6.285 2.75c-.645.645-1.008 1.535-1.03 2.504-.97.027-1.86.387-2.504 1.03-1.55 1.55-1.32 4.3.516 6.148.313.313.715.578 1.203.8a4.08 4.08 0 0 0-1.203.805C1.43 15.877 1.2 18.63 2.75 20.185c.645.645 1.535 1.004 2.504 1.027.023.973.383 1.863 1.03 2.508.688.7 1.617 1.027 2.598 1.027 1.223 0 2.527-.523 3.547-1.543.184-.187.352-.402.504-.648.9 3.848 4.37 6.72 8.492 6.72.297 0 .535-.242.535-.54a.53.53 0 0 0-.535-.535c-3.168 0-5.9-1.937-7.05-4.684.96.813 2.117 1.23 3.207 1.23.98 0 1.9-.336 2.598-1.027.648-.645 1.008-1.535 1.03-2.504.97-.023 1.86-.387 2.504-1.03.766-.766 1.125-1.836 1.012-3.016-.1-1.145-.652-2.254-1.527-3.13zm-.246 5.383c-.555.555-1.352.8-2.242.7a.54.54 0 0 0-.445.152.55.55 0 0 0-.156.449c.113.9-.133 1.688-.7 2.242-1.13 1.133-3.203.902-4.62-.516-.465-.465-.8-1.242-1.027-2.312V18a.54.54 0 0 0-.539-.539c-.297 0-.535.242-.535.54v2.133c-.22 1.07-.562 1.848-1.027 2.313-1.418 1.414-3.492 1.648-4.62.516-.56-.555-.8-1.352-.7-2.246a.54.54 0 0 0-.602-.598c-.9.1-1.687-.137-2.242-.7-1.133-1.133-.902-3.207.516-4.625.465-.465 1.242-.8 2.313-1.027h3.77c.3 0 .54-.238.54-.54a.53.53 0 0 0-.54-.535H6.34c-1.07-.22-1.848-.566-2.312-1.027C2.6 10.254 2.38 8.18 3.512 7.047c.555-.555 1.352-.8 2.242-.7.164.02.332-.035.45-.152a.54.54 0 0 0 .152-.449c-.1-.9.137-1.687.7-2.242 1.133-1.133 3.203-.902 4.62.516.465.465.8 1.242 1.027 2.313v3.184a.54.54 0 0 0 .539.539c.297 0 .535-.242.535-.54v-3.18c.22-1.074.566-1.852 1.027-2.316 1.418-1.414 3.492-1.648 4.625-.516.555.555.8 1.352.7 2.246-.023.164.035.328.152.445a.54.54 0 0 0 .445.152c.9-.1 1.688.137 2.246.7.53.535.78 1.3.7 2.152-.086.895-.52 1.773-1.22 2.473-.465.465-1.242.8-2.312 1.027h-3.18a.54.54 0 0 0-.539.539c0 .297.242.535.54.535h3.18c1.07.22 1.848.566 2.313 1.027.7.703 1.133 1.578 1.22 2.473.082.855-.168 1.617-.703 2.152zm0 0" fill="url(#D)"/></svg>