<svg xmlns="http://www.w3.org/2000/svg" width="24" height="24" fill="none" xmlns:v="https://vecta.io/nano"><path fill-rule="evenodd" d="M24 22.486L22.486 24l-5.797-5.797 1.514-1.514L24 22.486zM9.637 19.274A9.64 9.64 0 0 1 0 9.637 9.64 9.64 0 0 1 9.637 0a9.64 9.64 0 0 1 9.637 9.637 9.64 9.64 0 0 1-9.637 9.637zm0-2.14c4.14 0 7.495-3.356 7.495-7.495s-3.356-7.495-7.495-7.495S2.142 5.5 2.142 9.64s3.356 7.495 7.495 7.495zM6.424 9.637v1.07h-2.14v-1.07c0-2.957 2.397-5.354 5.354-5.354h1.07v2.14h-1.07c-1.774 0-3.212 1.438-3.212 3.212z" fill="#150e06"/></svg>